<?xml version="1.0" encoding="iso-8859-1"?>
<!-- Generator: Adobe Illustrator 19.0.0, SVG Export Plug-In . SVG Version: 6.00 Build 0)  -->
<svg version="1.1" id="Capa_1" xmlns="http://www.w3.org/2000/svg" xmlns:xlink="http://www.w3.org/1999/xlink" x="0px" y="0px"
	 viewBox="0 0 480 480" style="enable-background:new 0 0 480 480;" xml:space="preserve">
<path id="XMLID_880_" d="M370,260h-10c-19.567,0-37.285,8.07-50,21.057V200c0-38.598-31.401-70-70-70h-10V10c0-5.523-4.477-10-10-10
	h-60c-5.523,0-10,4.477-10,10v120h-10c-38.598,0-70,31.402-70,70v270c0,5.523,4.477,10,10,10h220c33.084,0,60-26.916,60-60
	c0-15.423-5.85-29.506-15.447-40.146C381.038,377.501,410,347.069,410,310v-10C410,277.944,392.056,260,370,260z M170,20h40v110h-40
	V20z M90,200c0-27.57,22.43-50,50-50h100c27.57,0,50,22.43,50,50v81.057C277.285,268.07,259.567,260,240,260h-10
	c-18.604,0-34.283,12.767-38.734,30H90V200z M251.262,335.405L275.857,360H260c-27.57,0-50-22.43-50-50v-10c0-11.028,8.972-20,20-20
	h10c27.57,0,50,22.43,50,50v15.858l-24.596-24.596c-3.906-3.905-10.236-3.905-14.143,0
	C247.356,325.168,247.356,331.5,251.262,335.405z M255.315,460H90V310h100c0,37.069,28.961,67.501,65.447,69.854
	C245.85,390.494,240,404.577,240,420C240,435.353,245.796,449.377,255.315,460z M300,460c-22.056,0-40-17.944-40-40
	c0-22.053,17.938-39.996,39.991-40c0.003,0,0.006,0,0.009,0s0.006,0,0.009,0C322.062,380.004,340,397.947,340,420
	C340,442.056,322.056,460,300,460z M390,310c0,27.57-22.43,50-50,50h-15.857l24.596-24.595c3.905-3.905,3.905-10.237,0-14.142
	c-3.904-3.905-10.234-3.905-14.143,0L310,345.858V330c0-27.57,22.43-50,50-50h10c11.028,0,20,8.972,20,20V310z"/>
<g>
</g>
<g>
</g>
<g>
</g>
<g>
</g>
<g>
</g>
<g>
</g>
<g>
</g>
<g>
</g>
<g>
</g>
<g>
</g>
<g>
</g>
<g>
</g>
<g>
</g>
<g>
</g>
<g>
</g>
</svg>
