<?xml version="1.0" encoding="iso-8859-1"?>
<!-- Generator: Adobe Illustrator 19.0.0, SVG Export Plug-In . SVG Version: 6.00 Build 0)  -->
<svg version="1.1" id="Layer_1" xmlns="http://www.w3.org/2000/svg" xmlns:xlink="http://www.w3.org/1999/xlink" x="0px" y="0px"
	 viewBox="0 0 512 512" style="enable-background:new 0 0 512 512;" xml:space="preserve">
<g>
	<g>
		<g>
			<path d="M325.683,172.476c-10.266,0-17.289,6.187-22.946,11.162c-2.552,2.253-6.067,5.342-7.68,5.342
				c-0.341,0-0.794-0.188-1.109-0.341c-7.817-3.917-17.306,1.109-21.811,12.006c-3.226,7.774-4.25,19.575,3.43,27.255
				c14.891,14.891,28.032,18.014,36.429,18.014c13.44,0,24.508-8.175,28.902-21.35c1.485-4.463,4.036-8.457,6.502-12.322
				c4.838-7.578,12.945-20.267-0.751-31.181C339.396,175.283,332.544,172.476,325.683,172.476z M333.013,203.059
				c-2.739,4.292-6.153,9.643-8.303,16.111c-2.082,6.238-6.605,9.677-12.715,9.677c-7.313,0-15.974-4.625-24.363-13.013
				c-0.666-0.674-0.99-2.27-0.845-4.173c0.23-2.756,1.297-5.222,2.219-6.63c2.005,0.674,4.028,1.016,6.059,1.016
				c8.047,0,13.841-5.103,18.953-9.6c4.036-3.55,7.842-6.903,11.665-6.903c2.807,0,6.281,1.638,10.334,4.864
				c0.751,0.606,1.067,0.998,1.152,1.015C336.99,196.83,334.609,200.568,333.013,203.059z"/>
			<path d="M108.297,118.972c4.446,1.579,9.318-0.759,10.889-5.197C139.631,55.927,194.62,17.067,256,17.067
				c9.583,0,19.123,0.939,28.45,2.79c-0.077,5.18,0.486,10.709,1.024,16.12c0.503,4.966,1.297,12.962,0.623,16.154
				c-16.862,5.948-28.902,16.358-33.161,28.74c-3.123,9.079-1.801,18.628,3.712,26.906c2.893,4.335,5.419,9.216,7.851,13.943
				c5.077,9.822,11.682,22.63,22.246,22.63c2.244,0,4.676-0.58,7.305-1.894c6.588-3.302,10.82-10.854,15.292-18.85
				c4.326-7.714,9.702-17.323,14.925-17.323c3.004,0,4.147,0.555,6.434,11.366c1.536,7.262,3.448,16.299,11.52,20.326
				c11.196,5.623,45.901,0.102,65.399-8.183c0.358-0.154,0.589-0.435,0.913-0.631c0.503-0.29,0.981-0.58,1.4-0.956
				c0.418-0.375,0.734-0.785,1.067-1.229c0.324-0.435,0.631-0.853,0.879-1.348c0.239-0.486,0.375-0.99,0.521-1.527
				c0.145-0.529,0.265-1.041,0.299-1.596c0.043-0.546-0.026-1.092-0.094-1.655c-0.051-0.384,0.017-0.751-0.077-1.135
				c-12.092-44.706-42.888-82.193-84.48-102.861c-4.25-2.108-9.344-0.375-11.435,3.84c-2.108,4.224-0.375,9.344,3.84,11.443
				c34.901,17.331,61.099,47.966,73.173,84.668c-17.673,5.726-39.279,7.629-43.571,6.042c-1.032-1.024-2.048-5.845-2.654-8.73
				c-1.843-8.704-5.265-24.9-23.134-24.9c-15.232,0-23.313,14.447-29.815,26.061c-1.997,3.584-5.197,9.293-7.296,11.315
				c-2.108-2.278-5.291-8.439-7.492-12.698c-2.526-4.907-5.393-10.462-8.815-15.582c-2.56-3.857-3.166-7.851-1.775-11.896
				c2.594-7.543,11.511-14.49,23.851-18.586c12.493-4.156,10.914-19.772,9.532-33.553c-0.691-6.869-1.468-14.652-0.461-19.277
				c0.981-4.497-1.783-8.969-6.255-10.095C282.82,1.647,269.44,0,256,0c-68.599,0-130.048,43.435-152.9,108.083
				C101.521,112.529,103.851,117.402,108.297,118.972z"/>
			<path d="M102.4,443.733c2.185,0,4.369-0.836,6.033-2.5c3.337-3.337,3.337-8.73,0-12.066l-77.286-77.244
				c-0.572-0.503-14.08-12.553-14.08-36.19v-128c0-9.412,7.654-17.067,17.067-17.067c9.404,0,17.067,7.654,17.067,17.067v67.558
				c0,4.71,3.814,8.533,8.533,8.533s8.533-3.823,8.533-8.533v-67.558c0-18.825-15.309-34.133-34.133-34.133
				C15.309,153.6,0,168.909,0,187.733v128c0,31.863,19.277,48.495,19.567,48.7l76.8,76.8
				C98.031,442.897,100.215,443.733,102.4,443.733z"/>
			<path d="M418.133,162.133c0-2.893-0.077-5.769-0.222-8.619c-0.256-4.71-4.301-8.422-8.969-8.073
				c-4.71,0.239-8.329,4.258-8.081,8.96c0.128,2.569,0.205,5.137,0.205,7.731c0,79.155-63.736,143.718-142.583,145.05
				c-28.382-18.799-25.199-36.241-20.241-47.821c16.247-37.914-7.219-55.125-16.051-61.611c-0.563-0.41-1.084-0.768-1.527-1.109
				c-0.102-3.14,1.306-10.641,2.372-16.265c1.963-10.479,4.42-23.518,4.42-36.779c0-11.102-5.649-19.968-15.497-24.32
				c-10.965-4.847-25.626-3.081-33.425,4.019c-5.137,4.668-6.921,11.29-4.779,17.698c2.048,6.144,1.152,17.186-4.523,26.402
				c-2.91,4.727-8.201,10.624-16.87,11.887c-1.476,0.222-2.176,0.111-2.244,0.171c-0.836-1.084-1.63-5.274-2.15-8.064
				c-2.364-12.459-6.758-35.669-44.501-35.669c-0.401,0-0.751,0.179-1.135,0.23c-0.597,0.077-1.169,0.154-1.724,0.35
				c-0.495,0.179-0.905,0.427-1.348,0.691c-0.512,0.29-0.99,0.572-1.425,0.956c-0.393,0.35-0.683,0.759-1.007,1.178
				c-0.341,0.444-0.674,0.862-0.93,1.365c-0.256,0.512-0.384,1.058-0.529,1.621c-0.102,0.384-0.316,0.708-0.367,1.109
				c-0.794,6.494-1.135,12.151-1.135,18.91c0,68.625,43.452,130.074,108.126,152.917c0.939,0.333,1.903,0.495,2.842,0.495
				c3.516,0,6.81-2.193,8.047-5.7c1.57-4.437-0.768-9.318-5.205-10.888c-57.865-20.437-96.742-75.426-96.742-136.823
				c0-3.157,0.094-6.05,0.273-8.917c16.307,1.98,17.971,10.684,19.985,21.359c1.621,8.516,4.651,24.371,23.637,21.606
				c11.844-1.732,22.118-8.781,28.937-19.831c7.672-12.459,10.155-28.834,6.016-40.175c0.956-1.485,7.262-3.763,13.619-1.894
				c6.263,1.852,6.989,6.204,6.989,9.318c0,11.674-2.287,23.842-4.13,33.621c-2.799,14.865-4.651,24.687,1.34,30.669
				c0.99,0.998,2.56,2.21,4.489,3.627c8.525,6.246,21.376,15.676,10.47,41.122c-8.013,18.705-9.515,46.089,28.894,70.315
				c1.357,0.862,2.935,1.314,4.548,1.314C345.404,324.267,418.133,251.537,418.133,162.133z"/>
			<path d="M196.267,460.8h-8.533v-68.267c0-31.403-19.191-48.401-19.567-48.7L108.433,284.1
				c-6.417-6.426-14.686-10.155-23.262-10.513c-9.054-0.316-17.493,3.004-23.97,9.481c-6.485,6.477-9.847,14.993-9.489,23.97
				c0.358,8.576,4.096,16.845,10.522,23.262l42.667,42.667c3.337,3.337,8.73,3.337,12.066,0c3.336-3.337,3.336-8.73,0-12.066
				L74.3,318.234c-3.388-3.388-5.35-7.612-5.521-11.895c-0.179-4.215,1.382-8.09,4.489-11.204c3.115-3.106,6.886-4.676,11.204-4.488
				c4.284,0.171,8.516,2.133,11.895,5.521l60.134,60.109c0.572,0.521,14.165,12.928,14.165,36.258V460.8H59.733
				c-4.719,0-8.533,3.823-8.533,8.533v34.133c0,4.71,3.814,8.533,8.533,8.533s8.533-3.823,8.533-8.533v-25.6h119.467v25.6
				c0,4.71,3.814,8.533,8.533,8.533s8.533-3.823,8.533-8.533v-34.133C204.8,464.623,200.986,460.8,196.267,460.8z"/>
			<path d="M477.867,153.6c-18.825,0-34.133,15.309-34.133,34.133v67.558c0,4.71,3.814,8.533,8.533,8.533
				c4.719,0,8.533-3.823,8.533-8.533v-67.558c0-9.412,7.654-17.067,17.067-17.067c9.404,0,17.067,7.654,17.067,17.067v128
				c0,23.637-13.508,35.686-14.566,36.634l-76.8,76.8c-3.337,3.337-3.337,8.73,0,12.066c1.664,1.664,3.849,2.5,6.033,2.5
				c2.185,0,4.369-0.836,6.033-2.5l76.262-76.314c0.828-0.691,20.104-17.323,20.104-49.186v-128
				C512,168.909,496.691,153.6,477.867,153.6z"/>
			<path d="M452.267,460.8H341.333v-68.267c0-23.33,13.594-35.738,14.566-36.634l59.733-59.733c3.379-3.388,7.612-5.35,11.895-5.521
				c4.352-0.188,8.09,1.382,11.204,4.488c3.106,3.115,4.668,6.989,4.489,11.204c-0.171,4.284-2.133,8.508-5.521,11.895
				L395.034,360.9c-3.337,3.337-3.337,8.73,0,12.066c3.336,3.337,8.73,3.337,12.066,0l42.667-42.667
				c6.426-6.417,10.155-14.686,10.522-23.262c0.358-8.977-3.004-17.493-9.489-23.97c-6.477-6.477-14.908-9.805-23.97-9.481
				c-8.576,0.358-16.845,4.087-23.262,10.513l-59.29,59.324c-0.819,0.708-20.011,17.707-20.011,49.109V460.8h-8.533
				c-4.719,0-8.533,3.823-8.533,8.533v34.133c0,4.71,3.814,8.533,8.533,8.533s8.533-3.823,8.533-8.533v-25.6h119.467v25.6
				c0,4.71,3.814,8.533,8.533,8.533c4.719,0,8.533-3.823,8.533-8.533v-34.133C460.8,464.623,456.986,460.8,452.267,460.8z"/>
		</g>
	</g>
</g>
<g>
</g>
<g>
</g>
<g>
</g>
<g>
</g>
<g>
</g>
<g>
</g>
<g>
</g>
<g>
</g>
<g>
</g>
<g>
</g>
<g>
</g>
<g>
</g>
<g>
</g>
<g>
</g>
<g>
</g>
</svg>
