<?xml version="1.0" encoding="iso-8859-1"?>
<!-- Generator: Adobe Illustrator 19.0.0, SVG Export Plug-In . SVG Version: 6.00 Build 0)  -->
<svg version="1.1" id="Layer_1" xmlns="http://www.w3.org/2000/svg" xmlns:xlink="http://www.w3.org/1999/xlink" x="0px" y="0px"
	 viewBox="0 0 245.692 245.692" style="enable-background:new 0 0 245.692 245.692;" xml:space="preserve">
<g>
	<g>
		<g>
			<path d="M25.612,201.46c-3.088,0-5.604,2.516-5.604,5.608c0,3.092,2.516,5.608,5.604,5.608s5.604-2.516,5.604-5.608
				C31.216,203.976,28.7,201.46,25.612,201.46z M25.612,210.408c-1.84,0-3.34-1.5-3.34-3.34c0-1.84,1.5-3.34,3.34-3.34
				c1.84,0,3.34,1.5,3.34,3.34C28.952,208.908,27.448,210.408,25.612,210.408z"/>
			<path d="M9.612,209.46c-3.088,0-5.604,2.516-5.604,5.608c0,3.092,2.516,5.608,5.604,5.608s5.604-2.516,5.604-5.608
				C15.216,211.976,12.7,209.46,9.612,209.46z M9.612,218.408c-1.84,0-3.34-1.5-3.34-3.34c0-1.84,1.5-3.34,3.34-3.34
				c1.84,0,3.34,1.5,3.34,3.34C12.952,216.908,11.448,218.408,9.612,218.408z"/>
			<path d="M244.032,182.352c-0.584-0.208-14.444-4.984-27.92-0.372h0.004c-3.368,1.152-6.372,2.776-8.988,4.568
				c1.216-3.26,2.048-6.792,2.78-10.416c0.812-3.992-0.6-6.472-4.452-7.808c-7.644-2.648-15.224-4.768-23.548-1.996
				c-1.004-5.7-3.644-10.152-6.816-13.88c4.176-11.108,6.54-23.192,6.54-35.876c0-2.412,0-10.772,0-11.856
				c0-10.38-17.956-18.136-42.264-22.524c0.936-2.016,1.772-3.792,2.456-5.196c5.404-11.12,10.708-15.188,15.84-19.12
				c4.144-3.176,8.056-6.172,11.528-12.34c6.548-11.64,4.328-21.564-6.416-28.704l-0.252-0.144
				c-11.684-5.48-21.316-2.236-27.876,9.412c-3.424,6.088-4.212,10.984-5.044,16.168c-1.052,6.548-2.136,13.316-8.9,23.792
				c-1.96,3.036-4.868,7.516-8.34,12.852c-7.096-0.508-14.332-0.804-21.548-0.804c-58.384,0-90.488,14.196-90.488,27.096
				c0,0.808-0.328,8.964-0.328,11.376c0,36.672,19.164,68.648,47.36,85.124c-3.06,1.792-4.704,3.836-4.704,6.124
				c0,8.608,23.408,16.452,49.108,16.452c13.992,0,27.232-2.344,36.452-5.852c0.716,1.672,2.02,3.288,3.472,3.908
				c6.636,2.832,15.14,5.236,23.152-0.396c3.908,5.352,6.468,8.604,9.364,9.556c0.204,0.068,0.412,0.1,0.62,0.1
				s0.416-0.032,0.62-0.1c2.9-0.956,5.46-4.208,9.368-9.556c8.008,5.624,16.512,3.224,23.156,0.396
				c1.276-0.544,2.544-1.332,3.42-3.636c5.452,5.452,13.072,7.356,13.44,7.444l1.492,0.348l0.232-1.516
				c0.06-0.392,1.38-9.652-3.992-16.96c-1.28-1.744-2.812-3.16-4.4-4.36c0.792,0.04,1.592,0.076,2.424,0.076
				c3.976,0,8.376-0.508,12.732-2c13.5-4.62,21.132-16.772,21.452-17.284l0.924-1.5L244.032,182.352z M239.596,184.08l-11.112,3.788
				l2.252-4.968C234.288,183.056,237.392,183.58,239.596,184.08z M228.76,182.864l-2.632,5.812l-7.172,2.448l3.352-7.724
				C224.52,183.032,226.692,182.86,228.76,182.864z M217.028,184.664c1.096-0.376,2.196-0.66,3.296-0.908l-3.316,7.64
				c-0.056,0.128-0.016,0.26-0.012,0.388l-7.608,2.596l3.624-7.996C214.292,185.744,215.616,185.148,217.028,184.664z
				 M210.352,187.848l-3.284,7.244c-0.012,0.028,0.008,0.052-0.004,0.08l-7.872,2.684c0.052-0.068,0.108-0.132,0.164-0.2
				c1.86-1.432,3.388-3.08,4.636-4.916C205.804,191.068,207.908,189.36,210.352,187.848z M204.156,172.076
				c1.96,0.68,2.272,1.228,1.86,3.264c-2.024,9.968-5.304,19.056-15.192,22.596c-8.28-1.372-16.12-4.328-22.716-8.668
				c-0.332-0.22-0.784-0.516-0.968-0.8c-0.108-0.168-0.16-0.408-0.168-0.748c-0.024-2.136,1.764-4.208,3.756-6.316L180.552,171
				C188.536,167.464,196.548,169.44,204.156,172.076z M178.48,169.848c0.008,0.092-0.008,0.064-0.02,0.02L178.48,169.848
				c-0.044-0.108-0.032-0.032-0.02,0.02l-9.308,9.86c-1.88,1.988-4.448,4.704-4.408,8.028c0.012,0.828,0.2,1.5,0.56,2.056
				c0.372,0.58,0.904,0.976,1.468,1.352c4.924,6.104,6.388,13.124,3.856,18.6c-2.688-1.876-4.82-3.956-6.072-5.936
				c-0.052-0.08-0.248-0.444-0.964-0.452c-0.804-0.008-0.916,0.372-0.964,0.452c-1.248,1.98-3.384,4.06-6.072,5.936
				c-2.508-5.424-1.224-11.88,3.58-17.932c0.528-0.336,1.096-0.62,1.608-0.972c0.572-0.396,1.168-0.836,1.576-1.488
				c0.348-0.568,0.52-1.232,0.524-2.028c0.04-3.292-2.408-6.012-4.2-7.996l-8.475-9.403c0.019-0.06,0.03-0.142-0.025-0.025
				c0-0.003,0-0.001,0-0.004c0.696-8.412,5.6-14.812,12.424-20.84c0.456-0.404,0.876-0.716,1.252-0.932
				c0.38,0.216,0.8,0.528,1.26,0.932C172.908,155.112,177.784,161.436,178.48,169.848z M123.636,175.344
				c-0.416-2.036-0.096-2.584,1.864-3.264c7.612-2.636,15.32-4.684,23.296-1.14c0.1,0.044,0,0,0.104,0.028l9.02,10.004
				c1.904,2.108,3.612,4.184,3.584,6.352c-0.004,0.348-0.06,0.6-0.164,0.776c-0.16,0.26-0.532,0.528-0.904,0.784
				c-6.4,4.408-14.028,7.4-22.076,8.736C128.48,194.08,125.66,185.308,123.636,175.344z M131.588,198.54
				c-12.168,6.98-26.028,11.004-40.776,11.004c-8.448,0-16.612-1.324-24.34-3.744c5.444-0.828,13.044-2.268,21.352-4.728
				c10.336-3.06,23.196-8.236,34.052-16.48C123.68,190.22,126.456,195.156,131.588,198.54z M143.088,126.584
				c5.504-1.068,10.532-2.304,15.092-3.652c2.236,5.296,3.48,11.032,3.58,17.24c0.032,1.824-0.088,3.664-0.256,5.512
				c-0.188,0.152-0.368,0.252-0.56,0.424c-5.58,4.924-11.56,10.916-13.2,20.22c-3.072-1.02-6.04-1.368-8.948-1.28
				C144.488,153.96,145.924,141.068,143.088,126.584z M151.144,169.92l0.023,0.026C151.152,169.987,151.138,170.01,151.144,169.92z
				 M172.004,149.172c-1.092-1.068-2.196-2.096-3.292-3.064c-1.148-1.012-2.224-1.672-3.28-2.012c-0.392-0.128-0.82-0.128-1.212,0
				c-0.26,0.084-0.52,0.244-0.784,0.368c0.108-1.444,0.16-2.884,0.136-4.312c-0.108-6.384-1.404-12.276-3.68-17.728
				c7.844-2.444,14.012-5.256,17.7-8.296c0.024,0.84,0.036,1.656,0.036,2.452C177.628,128.056,175.58,139.012,172.004,149.172z
				 M177.628,104.716c0,8.572-22.924,17.912-58.34,21.292c4.5-9.66,8.948-19.428,12.804-27.916c2.024-4.452,3.908-8.6,5.56-12.188
				C162.404,90.268,177.628,97.74,177.628,104.716z M87.992,127.292c-0.812-0.008-1.616-0.02-2.42-0.036
				c3.04-4.652,6.18-9.46,9.308-14.256c8.004,5.208,15.576,7.484,22.38,7.972c-0.836,1.808-1.676,3.616-2.52,5.416
				c-0.932,0.068-1.848,0.144-2.788,0.208c-1.024,0.068-2.012,0.156-3.052,0.216c-1.792,0.104-3.644,0.168-5.488,0.24
				c-1.132,0.044-2.228,0.108-3.38,0.144c-2.768,0.08-5.604,0.116-8.476,0.124C90.328,127.312,89.136,127.304,87.992,127.292z
				 M88.732,131.3c-6.392,7.084-17.344,13.812-35.976,13.812c-0.472,0-0.952-0.004-1.432-0.012c-13.56-0.248-23.54-4-29.66-11.148
				c-3.816-4.456-5.468-9.524-6.164-13.68c5.172,2.004,11.432,3.824,18.508,5.376c12.716,3.044,28.968,5.104,48.604,5.56
				C84.644,131.264,86.688,131.284,88.732,131.3z M95.88,111.464c4.06-6.22,8.072-12.376,11.804-18.096
				c3.132,0.664,6.228,1.068,9.256,1.068c3.06,0,6.068-0.34,9.012-1.02c1.604-0.372,3.096-0.856,4.544-1.388
				c-0.652,1.436-1.32,2.904-2.008,4.42c-3.176,6.98-6.744,14.836-10.416,22.776C110.572,118.792,103.152,116.216,95.88,111.464z
				 M160.696,20.216c8.884,5.96,10.528,13.608,5.032,23.372c-2.104,3.74-4.38,6.144-6.884,8.272
				c-5.504-1.468-11.932-5.168-16.996-13.876c-2.184-3.756-3.324-7.2-3.5-10.324C143.82,18.236,151.132,15.776,160.696,20.216z
				 M124.036,68.204c7.212-11.176,8.416-18.688,9.48-25.316c0.68-4.244,1.376-8.04,3.396-12.392c0.552,2.64,1.644,5.436,3.368,8.396
				c4.988,8.584,11.272,12.584,16.868,14.36c-0.62,0.488-1.248,0.976-1.896,1.472c-5.244,4.02-11.184,8.576-16.996,20.536
				c-0.552,1.136-1.196,2.492-1.912,4.024c-3.772-0.94-9.42-3.22-13.928-8.568C123,69.808,123.552,68.952,124.036,68.204z
				 M121.376,72.316c4.604,5.228,10.244,7.588,14.192,8.632c-1.172,2.524-2.5,5.432-3.956,8.624c-1.896,0.82-3.876,1.572-6.072,2.08
				c-5.376,1.24-10.988,1.204-16.78,0.068C113.752,84.056,118.16,77.276,121.376,72.316z M90.812,82.1
				c6.66,0,12.984,0.24,19.064,0.62c-8.364,12.848-19.28,29.576-28.992,44.448C35.656,125.736,4.932,114.7,4.932,104.716
				C4.932,94.02,40.2,82.1,90.812,82.1z M3.996,116.576c0-0.796,0.012-1.612,0.036-2.452c2.276,1.876,5.52,3.66,9.476,5.332
				c0.608,4.568,2.304,10.444,6.76,15.66c6.472,7.572,16.912,11.544,31.024,11.8c0.496,0.008,0.984,0.012,1.472,0.012
				c20.292,0,31.804-7.772,38.296-15.6c2.116-0.004,4.236-0.032,6.356-0.076c0.332-0.008,0.664-0.012,0.996-0.02
				c2.116-0.052,4.224-0.128,6.328-0.224c0.316-0.016,0.628-0.028,0.944-0.044c2.176-0.108,4.344-0.232,6.496-0.384
				c0.024,0,0.044-0.004,0.068-0.004c2.244-0.16,4.468-0.344,6.672-0.552c0.068-0.008,0.14-0.012,0.208-0.02
				c2.048-0.196,4.072-0.412,6.08-0.648c0.388-0.044,0.768-0.092,1.152-0.14c0.092-0.012,0.184-0.024,0.276-0.036
				c-2.624,11.96-8.996,21.404-19.096,28.016c-26.316,17.236-71.248,11.628-90.62,8.112C8.736,151.124,3.996,134.432,3.996,116.576z
				 M18.148,167.36c9.216,1.604,23.2,3.492,38.24,3.492c18.188,0,37.832-2.764,52.144-12.14c10.7-7.004,17.396-17.04,20.028-29.788
				c0.968-0.124,1.944-0.244,2.9-0.38c1.044-0.148,2.06-0.308,3.084-0.468c0.432-0.068,0.864-0.132,1.288-0.204
				c1.872-0.3,3.676-0.632,5.468-0.964c2.844,14.516,1.288,27.36-4.66,38.316c-4.212,0.436-8.32,1.676-12.444,3.104
				c-3.848,1.332-5.264,3.812-4.456,7.804c0.464,2.284,0.972,4.524,1.584,6.692c-19.78,15.276-47.748,20.252-58.68,21.672
				C44.248,197.712,28.632,184.5,18.148,167.36z M127.912,214.192c-7.78,3.172-20.244,6.08-36.148,6.08
				c-27.6,0-45.108-8.756-45.108-12.452c0-0.696,2.232-2.392,5.008-3.768c11.86,6.076,25.14,9.488,39.152,9.488
				c14.676,0,28.508-3.804,40.78-10.436C129.672,206.232,128.5,209.912,127.912,214.192z M196.412,218.676
				c-8.996,4.124-15.292,3.568-20.704-1.072c-0.42-0.36-0.976-0.528-1.524-0.464c-0.552,0.064-1.048,0.356-1.376,0.804
				c-3.464,4.764-6.064,8.34-7.984,9.484c-1.916-1.144-4.516-4.72-7.98-9.484c-0.328-0.448-0.824-0.74-1.376-0.804
				c-0.08-0.008-0.152-0.012-0.232-0.012c-0.472,0-0.928,0.168-1.292,0.48c-5.408,4.636-11.6,4.952-20.704,1.076
				c-0.608-0.26-1.652-1.82-1.64-2.44c0.648-6.792,2.94-12.272,7.124-16.068c0.076-0.068,0.06-0.056,0.076-0.072
				c5.832-1.016,11.868-3.092,16.972-5.712c-3.296,6.02-3.616,12.34-0.632,17.552c0.152,0.268,0.416,0.464,0.72,0.536
				c0.088,0.02,0.18,0.032,0.268,0.032c0.22,0,0.436-0.064,0.624-0.184c2.856-1.844,5.2-3.94,6.836-6.028
				c1.636,2.088,3.98,4.184,6.836,6.028c0.188,0.12,0.408,0.184,0.624,0.184c0.088,0,0.18-0.012,0.268-0.032
				c0.304-0.072,0.568-0.268,0.72-0.536c3.108-5.436,2.652-12.068-1.052-18.316c5.984,3.256,12.68,5.556,19.716,6.696
				c4.188,3.796,6.7,9.132,7.348,15.908C198.064,216.86,197.72,218.076,196.412,218.676z M210.276,209.68
				c3.42,4.664,3.696,10.444,3.592,13.224c-2.756-0.912-8.448-3.264-11.992-7.832c-0.608-5.276-2.16-9.572-4.708-13.18
				c0.984,0.272,2.34,0.604,3.988,0.916C204.116,204.132,207.78,206.28,210.276,209.68z M222.396,199.036
				c-8.736,2.996-17.876,1.66-22.668,0.56l40.564-13.836C237.284,189.524,231.092,196.06,222.396,199.036z"/>
		</g>
	</g>
</g>
<g>
</g>
<g>
</g>
<g>
</g>
<g>
</g>
<g>
</g>
<g>
</g>
<g>
</g>
<g>
</g>
<g>
</g>
<g>
</g>
<g>
</g>
<g>
</g>
<g>
</g>
<g>
</g>
<g>
</g>
</svg>
