<?xml version="1.0" encoding="iso-8859-1"?>
<!-- Generator: Adobe Illustrator 19.0.0, SVG Export Plug-In . SVG Version: 6.00 Build 0)  -->
<svg version="1.1" id="Layer_1" xmlns="http://www.w3.org/2000/svg" xmlns:xlink="http://www.w3.org/1999/xlink" x="0px" y="0px"
	 viewBox="0 0 512 512" style="enable-background:new 0 0 512 512;" xml:space="preserve">
<g>
	<g>
		<g>
			<circle cx="291.649" cy="25.875" r="7.921"/>
			<path d="M498.47,274.693c-6.535-4.653-17.559-2.599-32.762,6.097c-8.247,4.718-16.923,10.982-25.421,18.285
				c2.015-31.852-3.184-56.709-6.578-68.981c-8.022-29.007-17.715-35.764-24.433-36.325c-8.483-0.702-17.427,7.587-26.559,24.655
				c-6.66,12.449-12.273,27.683-16.219,43.817c-1.845-1.199-3.719-2.362-5.655-3.447c-15.72-8.802-25.486-25.461-25.486-43.477
				v-96.356l40.76-51.346c3.712-4.676,4.405-10.92,1.808-16.297c-2.596-5.376-7.918-8.715-13.888-8.715h-38.705V16.007
				C325.333,7.18,318.153,0,309.326,0H204.832c-8.827,0-16.007,7.18-16.007,16.007v26.887
				c-13.256,1.934-23.471,13.373-23.471,27.158c0,10.023,5.403,18.805,13.446,23.597v66.183c-7.428-1.451-14.996-2.202-22.612-2.202
				c-64.937,0-117.767,52.83-117.767,117.767c0,42.043,22.265,80.535,58.432,101.679c-0.073,1.531-0.13,3.064-0.175,4.597
				c-15.92-8.681-32.583-15.311-48.015-19.016c-25.949-6.228-35.71-1.476-39.328,3.607c-3.91,5.493-5.006,17.257,11.969,42.11
				c7.517,11.006,24.281,32.425,52.09,52.216c15.862,11.288,33.537,20.67,51.22,27.212c12.779,12.114,29.974,19.371,48.527,19.371
				h162.438c8.768,3.188,17.824,4.828,26.715,4.828c14.712,0,28.972-4.48,40.731-13.823c20.082-15.956,27.983-42.223,23.28-68.424
				c11.775-9.277,27.598-23.957,42.541-44.954c19.793-27.81,28.614-53.538,32.111-66.4
				C505.315,302.369,508.422,281.775,498.47,274.693z M204.665,16.007h0.001c0-0.092,0.074-0.166,0.166-0.166h104.492
				c0.092,0,0.166,0.074,0.166,0.166v26.596h-79.582c2.165-1.414,3.598-3.854,3.598-6.632c0-4.374-3.546-7.921-7.921-7.921
				s-7.921,3.546-7.921,7.921c0,2.779,1.433,5.218,3.598,6.632h-16.598V16.007z M192.804,58.445h170.367l-27.814,35.037v-3.9
				c0-4.374-3.546-7.921-7.921-7.921H192.804c-6.401,0-11.608-5.208-11.608-11.609C181.196,63.653,186.403,58.445,192.804,58.445z
				 M319.516,97.503v96.225H194.642V97.503H319.516z M54.263,275.397c0-56.202,45.723-101.925,101.925-101.925
				c7.638,0,15.216,0.864,22.612,2.546v30.003c-7.281-2.375-14.931-3.613-22.612-3.613c-40.245,0-72.988,32.742-72.988,72.989
				c0,19.199,7.64,37.594,21.087,51.223c-2.691,10.763-4.681,21.661-5.965,32.626C70.884,340.311,54.263,309.179,54.263,275.397z
				 M82.579,447.683c-17.832-12.691-34.17-28.717-46.004-45.124c-9.767-13.542-13.255-22.856-13.792-26.713
				c3.439-0.659,12.017-0.564,25.684,3.107c15.64,4.202,32.653,11.617,48.317,21.025c0.006,0.149,0.018,0.297,0.024,0.446
				c0.092,2.137,0.205,4.271,0.35,6.405c0.001,0.016,0.002,0.031,0.003,0.045c0.147,2.162,0.326,4.322,0.527,6.479
				c0.024,0.26,0.05,0.521,0.074,0.78c0.413,4.29,0.934,8.571,1.562,12.841c0.036,0.246,0.071,0.491,0.108,0.737
				c0.314,2.09,0.652,4.177,1.017,6.261c0.042,0.242,0.088,0.482,0.131,0.723c0.347,1.947,0.715,3.892,1.108,5.832
				c0.043,0.214,0.083,0.43,0.128,0.644c0.409,1.995,0.844,3.986,1.3,5.973c0.097,0.422,0.196,0.844,0.296,1.265
				c0.469,1.999,0.954,3.995,1.471,5.985c0.771,2.964,1.727,5.841,2.847,8.624C99.91,458.975,91.367,453.937,82.579,447.683z
				 M99.042,275.397c0-31.511,25.636-57.147,57.146-57.147c7.564,0,15.083,1.549,22.04,4.465
				c-2.271,15.084-11.374,28.499-24.914,36.079c-20.042,11.22-35.245,28.707-43.548,49.831
				C102.865,298.999,99.042,287.398,99.042,275.397z M173.142,491.332v-0.001c-24.896,0-46.661-16.828-52.928-40.922
				c-0.533-2.051-1.032-4.111-1.511-6.176c-0.074-0.317-0.149-0.633-0.222-0.949c-0.458-2.01-0.889-4.026-1.297-6.047
				c-0.06-0.301-0.119-0.603-0.18-0.904c-0.415-2.104-0.808-4.213-1.167-6.328c-0.007-0.041-0.013-0.082-0.02-0.122
				c-0.378-2.233-0.724-4.471-1.04-6.714c-0.006-0.043-0.013-0.087-0.019-0.13c-0.306-2.187-0.58-4.38-0.826-6.574
				c-0.022-0.194-0.044-0.388-0.065-0.582c-0.239-2.172-0.45-4.348-0.63-6.527c-0.011-0.134-0.021-0.268-0.032-0.402
				c-0.359-4.432-0.596-8.875-0.712-13.322c-0.644-24.849,2.52-49.763,9.497-73.831c6.093-21.022,19.966-38.487,39.064-49.18
				c20.719-11.599,33.588-33.555,33.588-57.299v-5.747h124.873v5.747c0,23.744,12.87,45.7,33.59,57.299
				c19.098,10.693,32.971,28.158,39.063,49.18c5.726,19.757,8.887,40.011,9.474,60.457c-12.755-13.219-28.761-22.184-45.899-25.526
				c-20.463-3.99-40.066,0.436-55.204,12.464c-15.139,12.029-23.882,30.127-24.618,50.959c-0.719,20.362,6.343,40.963,19.887,58.008
				c3.896,4.902,8.17,9.297,12.722,13.171H173.142z M393.17,485.774c-24.026,19.089-62.139,11.254-84.96-17.468
				c-11.199-14.095-17.043-30.998-16.457-47.595c0.57-16.126,7.19-30.017,18.641-39.116c8.655-6.876,19.352-10.446,30.898-10.446
				c3.731,0,7.551,0.373,11.419,1.127c16.3,3.179,31.443,12.692,42.643,26.787C418.176,427.786,417.196,466.683,393.17,485.774z
				 M407.384,317.387c-4.985-17.2-14.344-32.401-27.086-44.363c7.283-34.969,21.401-58.132,27.582-62.832
				c2.593,2.864,7.476,11.545,11.531,27.813c4.892,19.63,6.585,42.452,4.766,64.263c-1.355,16.243-4.751,32.708-9.617,47.518
				C412.87,338.879,410.479,328.064,407.384,317.387z M484.623,317.907c-5.805,19.38-15.992,39.872-28.683,57.705
				c-9.841,13.828-21.797,26.86-34.355,37.535c-1.268-3.23-2.73-6.423-4.401-9.561c0.378-6.837,0.497-13.666,0.337-20.475
				c8.977-16.402,15.975-37.589,19.827-59.521c23.508-24.244,44.774-34.539,51.551-35.461
				C489.66,291.938,489.423,301.886,484.623,317.907z"/>
		</g>
	</g>
</g>
<g>
</g>
<g>
</g>
<g>
</g>
<g>
</g>
<g>
</g>
<g>
</g>
<g>
</g>
<g>
</g>
<g>
</g>
<g>
</g>
<g>
</g>
<g>
</g>
<g>
</g>
<g>
</g>
<g>
</g>
</svg>
