<svg xmlns="http://www.w3.org/2000/svg" viewBox="0 0 1077.11 921.58"><defs><style>.cls-1{fill:#4b2f1c;}.cls-2{fill:#edb057;}.cls-3{fill:#df3f27;}.cls-4{fill:#d59659;}.cls-5{fill:#df4028;}.cls-6{fill:#df3f28;}</style></defs><g id="Layer_2" data-name="Layer 2"><g id="Layer_1-2" data-name="Layer 1"><path class="cls-1" d="M231.18,673.94c-17.4,7.49-33.87,16.37-49.06,27.61q-41,30.3-82,60.45c-2.15,1.58-4.27,3.17-7,3.6a11.59,11.59,0,0,1-12.58-6.88c-2.21-5.11-.88-10.54,4-14.17,12.39-9.29,24.9-18.41,37.37-27.59,11.39-8.39,22.8-16.75,34.15-25.2,1.24-.92,2.93-1.52,3.55-3.75-21.73-.82-43,.26-63.25,8.48-7.58,3.08-13.56,9-20.35,13.44a43.48,43.48,0,0,1-5.9,3.71A11.6,11.6,0,0,1,58,694.19c19.68-16.83,42.21-26.51,68.22-28.63,21.68-1.77,43.26-.16,64.89.1a12.32,12.32,0,0,0,6.23-1.23c28.78-15.37,59-26.59,91.26-32.18,10.88-1.89,21.91-1.51,32.83-2.52,26.78-2.49,51.81-10.14,73.79-26.24,6.1-4.47,10.41-10.74,15.91-15.83a132.85,132.85,0,0,1,49-29.06,8.67,8.67,0,0,0,5.86-5.31c14.62-33.76,23.85-68.76,24.51-105.74.07-3.67,1.53-5,5.11-5q40.25.07,80.48-.05c4.12,0,5.15,2.13,5.18,5.6.32,36.89,10.07,71.56,24.36,105.24,2.36,5.58,5.66,8.93,11.42,11.15a138.2,138.2,0,0,1,49.62,32.6c12.29,12.5,28.26,19.07,44.6,24.58,16.84,5.69,34.17,8.09,51.94,8.77,36.08,1.4,69.5,13.1,101.28,29.26,10.24,5.21,20.13,6.3,31,5.82,18.79-.84,37.56-1.48,56.39.09,25.65,2.14,47.87,11.87,67.35,28.35a11.75,11.75,0,0,1,2.11,15.77,11.63,11.63,0,0,1-15.59,3.09A86.93,86.93,0,0,1,995,705.43c-10.46-8.64-22.6-12.95-35.83-15.12a192.71,192.71,0,0,0-44.29-2.08c-.77,0-1.54.24-3.37.54,9.64,7.16,18.52,13.78,27.42,20.36q23.5,17.37,47,34.7c6.17,4.57,7.69,12.06,3.65,17.38s-11,6.12-17.33,1.46q-41.87-30.74-83.62-61.62a214.6,214.6,0,0,0-30.17-18.55c-5.92-3-12-5.76-18.17-8.74-2.2,7.71-6.17,14.18-10,20.67-4,6.77-2.94,10.84,2.27,17.65a22.86,22.86,0,0,0,6.49,5.41c7.82,4.76,15.63,9.54,23.35,14.45,6.2,3.95,8,10.52,4.57,16.34s-10.11,7.4-16.48,3.61c-9-5.35-18.07-10.68-26.72-16.59-19.32-13.23-24-32.89-13.13-53.5,2.64-5,5.36-9.95,8-14.93a10.26,10.26,0,0,0,.37-1.18c-19-6.43-38.13-11.77-58.31-12.08a179.86,179.86,0,0,1-53.46-8.74c-3.08-1-4.19-.56-5.18,2.6-2.05,6.49-4.72,12.78-7,19.19-4.07,11.41-5.09,22.85-1.45,34.72,2.26,7.38-1.57,13.64-8.17,15.16s-11.9-2.31-14.36-9.74c-5.38-16.29-3.45-32.17,2-47.92,2.29-6.59,4.68-13.16,7.33-19.61,1.21-2.93,1.22-4.32-2.11-5.93-12.07-5.83-22.34-14.06-32.22-23.23-24.76-23-54.2-34.32-88.33-32.4-2.36.13-2.61,1-2.49,3C557,608,553.74,634.85,549,661.66c-2.24,12.77-2.94,25.8-3.75,38.77-.21,3.36,1.08,3.64,3.67,3.15,5.23-1,10.53-1.71,15.7-2.92,22.14-5.2,40.93,2.26,58.24,15.26a90.89,90.89,0,0,1,21.44,23.47c6.73,10.33,17.11,16.18,27.84,21.22,23.85,11.19,49.11,16,75.42,16.64,23.95.53,48-.12,71.8,3.48,21.28,3.21,42.21,7.66,61.31,18.24a42.86,42.86,0,0,1,17,16.45c4.46,7.8,9.27,15.4,13.87,23.12,3.9,6.56,2.51,13.56-3.29,17s-12.51,1.57-16.39-4.56c-4.53-7.17-9.14-14.32-13.16-21.78a26.52,26.52,0,0,0-12.13-11.37c-16.15-8-33.57-11.51-51.22-14.14-17.36-2.59-34.87-2.37-52.34-2.92-1.28,0-3.4-.86-3.35,1.64.22,10.59-1.36,21.31,2.8,31.6,2.39,5.93,5.82,10.7,11.57,13.8a137.5,137.5,0,0,1,12.76,7.83,11.35,11.35,0,0,1,3.39,15.08c-2.79,5.07-8.73,7.55-14.11,5.09-18.91-8.65-34-20.79-38.29-42.72-1.74-8.94-1.5-17.92-1.25-26.89.13-4.71-.83-6.24-6.07-6.7-31.92-2.79-62.1-11.21-88.76-29.83-7.75-5.41-13.61-12.55-19-20.27-10-14.27-23.18-24.12-40.87-26.95-4.4-.71-8.59.44-12.83,1.2-7.37,1.32-14.71,2.77-22.12,3.84-2.63.38-3.21,1.54-3.28,3.87-.82,29.65-.2,59.27.88,88.9.16,4.54,3.26,2.39,4.91,2.1a262.33,262.33,0,0,1,40.74-3.58c31.89-.62,61,8.79,88.54,24,8.88,4.9,17.4,10.45,26,15.82,6.52,4.06,8.35,10.7,4.78,16.64s-10.58,7.23-17,3.21c-18.07-11.27-36.06-22.69-56.59-29.21-8.09-2.57-16.15-5.18-24.69-5.83-1.79-.13-3.5-.41-3.38,2.19.41,8.13-.87,16.34.86,24.42s4.21,10.12,12.25,10.84c4,.36,8,.63,12,1,7.83.66,12.54,5.88,11.86,13.09-.62,6.49-6.15,10.65-13.51,10.12-4.65-.33-9.31-1.16-13.94-1-15.26.55-26.28-11.41-30.68-26-3.05-10.15-1.78-20.52-1.85-30.79,0-4.23-1-5.17-5.28-4.92-9.83.59-19.5,2.27-29.24,3.42-3.93.47-5.26,1.87-5.11,5.94.69,18.8,1.13,37.62,1.52,56.43.17,8.16-4.42,13.42-11.39,13.51s-11.55-5.21-11.76-13.22c-.5-18.81-1.13-37.61-1.64-56.42-.06-2.17-.14-3.76-2.9-4.22-11.31-1.89-22.39-5-33.81-6.37-4.11-.51-4.7.86-4.68,4.36.05,10,.91,20.06-1.84,29.82-3.69,13.09-10.12,24.33-24.54,27.5-7.72,1.69-15.86,1.85-23.82,2-6.24.11-10.59-4.81-10.78-10.87-.21-6.44,3.55-11.21,10.08-12.1a128.65,128.65,0,0,1,15.93-1.2c3.85,0,6.18-1.73,8-4.85,2.79-4.76,3.55-10,3.63-15.34s-.18-11,.21-16.49c.22-3-.59-3.63-3.39-3.5-13.44.61-26.16,4.21-38.79,8.59-19.05,6.61-36.16,16.79-53.07,27.45-1.26.8-2.55,1.57-3.87,2.27-5.94,3.15-12.54,1.66-15.81-3.55A11.28,11.28,0,0,1,346,859.3c14.49-9.14,29-18.16,44.61-25.45,40.18-18.8,81.65-20.91,124.26-10.72,6.33,1.52,6.33,1.45,6.16-5-.75-29.13-2.09-58.26-.47-87.39.2-3.77-.91-5.17-4.44-5.22a8.17,8.17,0,0,1-2.4-.65c-21.79-7.3-37.45,3.92-52.32,17.39-7.16,6.49-12.07,15.07-19.66,21.2-20.28,16.4-44.06,25-68.94,31.19a206.53,206.53,0,0,1-48,5.78c-3.47,0-4.52.81-4.46,4.34.19,11,.72,22-2.68,32.69-4.05,12.79-10.51,23.66-22.81,30.23-4,2.11-7.63,4.75-11.54,6.95-6.39,3.59-13.23,2.06-16.61-3.53-3.5-5.81-1.5-12.69,4.86-16.66a91.19,91.19,0,0,1,8.57-5.14c11.85-5.64,15.85-16,16.81-28,.43-5.47,0-11,.15-16.49.06-2.43-.51-3.73-3.25-3.67-29.62.59-58.78,3.73-86.31,15.76-6.07,2.66-11,6.51-14.44,12.48-4.21,7.36-8.95,14.43-13.52,21.58-3.84,6-10.84,7.94-16.36,4.65-5.87-3.5-7.41-10.57-3.45-17,5.32-8.64,10.82-17.17,16.24-25.75s13.71-13.39,22.56-17.45c17.56-8.05,36.2-12.07,55.2-14.77,27.48-3.89,55.23-2,82.78-4.06,29.94-2.2,58.22-10,83.87-26.3,9-5.69,14.47-14.61,21.73-21.88,14.49-14.49,30.75-25.89,51.64-29.17,8.35-1.32,16.2,1.1,24.11,2.85,3.4.76,3.89-.21,4-3.12,1.11-25.5,6.09-50.53,9.11-75.79a196.16,196.16,0,0,0,1-41.4c-.27-3-1.08-4.16-4.4-4.12-15.16.2-30.34-.36-45.48.19s-28.14,7.46-40.56,15.39a100.32,100.32,0,0,0-22.13,19.3c-7.38,8.58-16.64,14.81-26.54,20.06-2.78,1.48-3.64,2.52-2.4,5.94,6.66,18.34,12.45,36.92,11.09,56.85-.32,4.65-.59,9.35-2.11,13.77a11.68,11.68,0,0,1-13.67,7.41c-5.57-1.27-9.81-7-8.62-12.8,4.23-20.44-2.42-39.15-8.64-58-.66-2-1.46-2-3.26-1.39C345.44,651,324.92,653.32,304,654c-16.86.54-33.07,5.49-49.08,10.71-2.64.86-2.38,1.85-1.24,3.86,2.56,4.47,4.55,9.28,7.3,13.61,12.45,19.59,3.57,39.12-9,49.71-9.82,8.3-21.25,14.31-32.28,20.81-5.3,3.12-12.26.53-15.13-4.68a11.6,11.6,0,0,1,3.79-15.4c7.95-5.17,16.06-10.1,24.09-15.14a26.56,26.56,0,0,0,8-7.42c3.37-4.95,4.19-9.67.85-15.29C237.43,688.24,233.39,681.69,231.18,673.94Z"/><path class="cls-2" d="M811.11,355.7c25,1.91,53.72,8.67,77.66,28.35,11.12,9.14,10.08,9.59.14,18.35-13.89,12.22-30.86,18.42-48.38,23.28-13,3.63-26.32,5.8-39.89,5.05-26.34-1.47-47.18-13.18-63.09-34.12-2.48-3.26-1.15-5.48.78-7.88C755.67,367.15,777.81,355.37,811.11,355.7Z"/><path class="cls-2" d="M756,449.62c20.33-.12,36.59,6.16,51.61,16.44,13.77,9.42,26.38,20.06,36.59,33.36,6.07,7.91,11.61,16,14.6,25.8,1.4,4.58-.19,6.71-3.86,8-5.15,1.82-10.34,3.82-15.83,4.23-14.26,1.07-28.44,1.18-42.68-1.33-13.5-2.38-26.59-5.7-38.83-11.93-23.78-12.09-37.58-31.82-43.78-57.41-1.24-5.14,2.13-7.08,5.55-8.56C731.6,452.93,744.25,449,756,449.62Z"/><path class="cls-3" d="M201.33,99.39c33.22,3.19,64.48,11.7,89,36.11,15.3,15.22,22,34.45,23,55.87.18,3.92-2.19,4.72-5,5.57-26.07,8-50.93,5.4-73.31-10.42A143.23,143.23,0,0,1,184.55,123a53.91,53.91,0,0,1-4-16.91c-.18-2.69.76-3.8,3.31-4.55C189.6,99.83,195.37,99.59,201.33,99.39Z"/><path class="cls-3" d="M790.91,201a90.81,90.81,0,0,1-22.5-4.18c-3.57-1.05-4.73-3-4.51-6.48,2-30.15,15.06-53.95,41.3-69.38,23.59-13.88,49-22.62,76.84-21.11,17.54,1,16.79,1.87,12.48,17.37-5.5,19.83-17.66,35.92-31.39,50.89-12.82,14-27.38,25.23-46.06,30.23A84.23,84.23,0,0,1,790.91,201Z"/><path class="cls-2" d="M257,538.34c-11.74-.37-22.85-.65-33.5-4.61-6-2.23-6.64-3.05-4.82-9,2.92-9.51,8.28-17.68,14.33-25.4,10.5-13.39,23.26-24.45,37.24-33.92,18.49-12.54,39.13-18.2,61.47-15.23a85.49,85.49,0,0,1,28.2,9.33c3.17,1.66,4.38,3.8,3.56,7.21-7,29-23.63,49.85-51.65,61.14C294,535,275.33,537.65,257,538.34Z"/><path class="cls-2" d="M281,245.63c25.37-.14,46.09,3.74,65.4,12.8,25.53,12,40.72,32.53,46.42,60.16.64,3.07-1,4.11-3.14,5.28C369.74,334.68,348.36,338,327,331c-33.89-11-59.59-33.22-76.11-64.8-7.56-14.45-5.58-13.38,7.91-17.86A64.78,64.78,0,0,1,281,245.63Z"/><path class="cls-2" d="M794.85,245.73c10.33-.45,21.42.83,32,5.62,2.64,1.19,3.33,2.39,3,5.24-.94,7.74-4.82,14.22-9.11,20.2C803.54,300.74,782.16,320,754,329.92c-22.91,8.09-45.52,5.22-67-6.27-2.4-1.29-2.63-3.25-2.24-5.5A78.73,78.73,0,0,1,710.2,272c13.64-12.31,30.11-18.75,47.94-22.48A160.71,160.71,0,0,1,794.85,245.73Z"/><path class="cls-2" d="M265.48,430.8c-17.52-.54-36.88-5.27-55.47-13.38-11-4.81-21.41-10.58-29.63-19.62-3.77-4.15-3.74-5.52.3-9.55,13.55-13.55,30.46-21,48.45-26.29,14.06-4.13,28.35-6.85,43.18-6.27,22.72.89,41.59,9.89,57.3,26a48,48,0,0,1,3.54,3.44c6.23,8,6.12,9.29-1.08,17C313.9,421.8,294.57,430.45,265.48,430.8Z"/><path class="cls-4" d="M500.6,191.07c2.23-29.21,8.62-57.64,27.45-81.44,11-13.88,10.85-12.83,21.32.14,15,18.55,21.51,40.88,25.4,64.12,3.74,22.36.69,43.32-11.62,62.61a88.76,88.76,0,0,1-21.5,22.66c-2,1.54-3.74,1.65-5.81.13-19.16-14.08-30.74-32.76-34.13-56.36C501.16,199.15,501,195.32,500.6,191.07Z"/><path class="cls-5" d="M997,425.55c-21.75-.75-40-9.81-54.42-26.94-2.52-3-2.06-5.46.13-8.35,14.26-18.85,33.23-29,56.78-29.09a122.25,122.25,0,0,1,65.8,18.55c3.69,2.3,6.75,5.3,9.91,8.24,2.76,2.56,2.28,4.56,0,7.1-7.16,7.94-16,13.39-25.58,17.8A134.62,134.62,0,0,1,997,425.55Z"/><path class="cls-6" d="M104.73,520.19c-13.1.14-23.47-.74-33.43-4.73-4.31-1.73-5.79-3.68-3.92-8.55,5.39-14,15.25-24.48,26.14-34.11,11.53-10.2,24.07-19,39-23.61,20-6.18,39.08-3.38,57.25,6.75,2.29,1.27,2.68,2.88,2.09,5.36-5.74,23.82-19.84,40.79-42.35,50.16A116.07,116.07,0,0,1,104.73,520.19Z"/><path class="cls-2" d="M498.6,84.76c.22,17.55-6,32.74-16.87,46.26-2.1,2.61-4,3-7.22,1.46-24.77-11.55-38.44-31-41.88-57.86C430.12,55,432.34,35.82,438,17a50.8,50.8,0,0,1,8.14-15.31c2-2.72,4-1.54,6.09-.43,7.29,3.88,13,9.6,18.18,15.88a132.47,132.47,0,0,1,26.51,51.77A54.06,54.06,0,0,1,498.6,84.76Z"/><path class="cls-6" d="M75.92,361c22.34-.74,43.05,8.95,58.79,29.44,2.56,3.34,2,5.68-.49,8.64-17.43,20.59-39.63,29.09-66.17,25.57-20.32-2.69-39.87-8.55-56.35-21.13-15.69-12-15.53-12.21.06-23.45C26.68,369.27,48.61,363.06,75.92,361Z"/><path class="cls-2" d="M430.54,186.09c-.62,5.33-.42,12.28-2.63,19.07-1.11,3.39-2.7,4.56-6,4.46-16.33-.46-31.17-5-44.28-15.13s-20.93-24.11-27.14-39.08c-5.57-13.43-9.49-27.27-9.61-41.95a56.53,56.53,0,0,1,.45-5.94c.85-8.81.49-8.36,10-7.55,8.51.72,16.36,4.34,23.77,8.44,13.41,7.42,25.67,16.48,35.93,27.93C423.26,150,430.78,165.72,430.54,186.09Z"/><path class="cls-3" d="M123.85,253.31c17.6.4,34.88,2.7,50.87,10.54,19.84,9.73,32.19,25.68,37.83,47,.94,3.54-.48,5.19-3.25,6.69-20,10.83-40.86,13.23-61.93,4.24-23.8-10.15-43.2-26-56.56-48.53-6.4-10.76-4.46-14.62,7.77-17.46A99,99,0,0,1,123.85,253.31Z"/><path class="cls-3" d="M971.69,520.31c-20.43-.91-41.63-3.65-60.07-16.38-15.18-10.47-24.43-25-28.74-42.89-.74-3.06.8-4.2,3-5.39,24-13.13,48.11-13.16,71.84.27,19,10.78,35.91,24.47,46.48,44.06,7.11,13.19,7.3,13.18-8,17.82C988.61,520.09,980.75,520.11,971.69,520.31Z"/><path class="cls-2" d="M659.64,209.51c-5.34,1.63-7.1-1.63-8.22-6.57-5.89-26,.52-48.78,18.72-68,13.36-14.09,29-25.18,47.34-32a52.35,52.35,0,0,1,14-3.38c5.22-.45,6.47,2.09,7.15,6.45,1.37,8.71.36,17.23-1.51,25.69-3.79,17.14-10.23,33.33-20.43,47.56-11.09,15.47-25.88,25.89-45.3,28.77C667.61,208.61,664,209.92,659.64,209.51Z"/><path class="cls-4" d="M457.43,425.46c-27.4-2.61-53.4-9-74.29-28.46-5.57-5.2-5.45-6.05.31-11.34,10.82-9.94,24.07-15.21,37.91-19.16,17.78-5.07,35.71-7.9,54-2.78,16.52,4.61,29.43,14.19,39.32,28.1,1.57,2.22,1.19,3.75-.34,5.72-12,15.44-27.57,24.66-47,27.23-2,.26-4,.52-5.95.67C460.1,425.55,458.76,425.46,457.43,425.46Z"/><path class="cls-4" d="M696.31,541.83c-14.13-.13-27.07-4.85-39.61-10.69-11-5.13-21.5-11.3-30.4-19.71C609.53,495.57,602.42,475.91,604,453c.19-2.81.64-4.93,4.61-5.62,28.48-4.92,51.68,4,70.12,25.92,13,15.44,23.11,32.41,27.38,52.41a64.54,64.54,0,0,1,1.28,8.86c.42,6-.59,7-6.56,7.24C699.31,541.88,697.81,541.83,696.31,541.83Z"/><path class="cls-3" d="M948.26,253.33c13.1,0,24.1.85,34.53,5.61,3.58,1.64,4,3.53,2.73,7-4.49,12.2-12.66,21.73-21.9,30.43-13.94,13.1-29.19,24.29-48.18,28.81-18.22,4.34-35.59,1.47-52-7.7-3.18-1.78-3.83-3.84-2.87-7.27,7.71-27.58,25.76-44.6,53.09-52.07A126,126,0,0,1,948.26,253.33Z"/><path class="cls-4" d="M621.14,425.54c-24.31-.49-42.82-9.35-57.38-26.68-2.64-3.15-2.59-5.48-.12-8.65,16.67-21.28,38.23-31.09,65.33-28.71a134.82,134.82,0,0,1,53.58,15.89A56.82,56.82,0,0,1,696.31,388c2.27,2.37,2.19,4.3,0,6.84-7.38,8.51-16.74,14.07-26.83,18.53C653.52,420.43,636.93,424.89,621.14,425.54Z"/><path class="cls-4" d="M551.57,318c.48-18.68,6.92-34.61,19.45-48,14.38-15.39,31-27.49,51-34.71a41.06,41.06,0,0,1,11.17-2.41c6.46-.45,6.59-.19,7.62,6.07,1.85,11.3-.2,22.24-3.27,33-5.36,18.68-12.88,36.36-26.89,50.45s-31.14,20.29-50.78,20.47c-3.07,0-4.44-1.2-5.23-4A88.18,88.18,0,0,1,551.57,318Z"/><path class="cls-4" d="M473.55,459.7c-.13,25.76-11.4,45.6-32.52,59.95-15.55,10.56-32.33,18.33-51,21.58-5,.87-10,.46-14.94.52-3.51,0-4.49-1.72-4.55-5-.17-9.71,2.53-18.76,6.28-27.51,8.14-19,19.21-36.09,35.68-48.92,17.32-13.48,37.1-17,58.46-12.56,1.81.37,2.62,1.15,2.61,2.93C473.54,453.71,473.55,456.71,473.55,459.7Z"/><path class="cls-4" d="M525.85,319.42a69.51,69.51,0,0,1-2.23,20.44c-.87,3.11-2.37,4.19-5.58,4.23-24.19.34-43.86-9-57.89-28.55-15-20.83-23.78-44.11-23.53-70.2.1-11.33,1.61-12.52,12.51-10.1,16.3,3.63,30.11,12.23,42.9,22.48,12.28,9.85,23.14,21,29.07,36.07C524.5,302.43,526.44,311.27,525.85,319.42Z"/><path class="cls-2" d="M589.72,123.79c-7.42-9.45-10.82-20.51-11.92-32.18-1.54-16.49,3-31.77,10.25-46.49,6.49-13.18,14.29-25.29,24.87-35.6C616.44,6.1,620.5,3.64,624.48,1c2.28-1.53,4-1.28,5.87,1.12,6.2,8,9,17.39,11.12,26.92a133.09,133.09,0,0,1,1.92,47.57c-2.3,16.9-9.4,31.63-22.28,43.23a6.17,6.17,0,0,0-4,1.44,124.91,124.91,0,0,1-13,8.38c-5.1,2.77-7.8,1.92-10.22-3.45C592.83,123.88,591.53,123.82,589.72,123.79Z"/><path class="cls-2" d="M589.72,123.79c1.81,0,3.11.09,4.15,2.38,2.42,5.37,5.12,6.22,10.22,3.45a124.91,124.91,0,0,0,13-8.38,6.17,6.17,0,0,1,4-1.44c-5.8,6-12.82,10.19-20.43,13.46-2.28,1-4.39.62-5.67-1.54C593.39,129,589.39,127.82,589.72,123.79Z"/></g></g></svg>